<?xml version="1.0" standalone="no"?>
<!DOCTYPE svg PUBLIC "-//W3C//DTD SVG 20010904//EN"
 "http://www.w3.org/TR/2001/REC-SVG-20010904/DTD/svg10.dtd">
<svg version="1.0" xmlns="http://www.w3.org/2000/svg"
 width="97.000000pt" height="97.000000pt" viewBox="0 0 97.000000 97.000000"
 preserveAspectRatio="xMidYMid meet">
<metadata>
Created by potrace 1.14, written by Peter Selinger 2001-2017
</metadata>
<g transform="translate(0.000000,97.000000) scale(0.100000,-0.100000)"
fill="#000000" stroke="none">
<path d="M179 953 c-4 -24 -7 -58 -13 -158 -4 -60 -9 -128 -11 -150 -2 -22 -7
-83 -10 -136 -3 -53 -7 -116 -10 -140 -2 -24 -6 -84 -9 -133 l-6 -89 23 19
c12 10 33 29 46 42 13 12 26 20 28 18 3 -2 -1 -39 -7 -81 -6 -42 -9 -83 -6
-91 3 -8 1 -14 -4 -14 -6 0 -10 -9 -10 -20 0 -19 5 -17 54 17 150 105 586 426
586 433 0 3 -41 33 -91 66 l-91 59 33 27 c20 17 29 31 24 37 -6 4 -111 66
-235 136 -124 70 -240 136 -257 147 -18 11 -34 16 -34 11z m496 -385 c14 -6
25 -15 25 -19 0 -4 9 -10 19 -14 11 -3 37 -20 58 -37 27 -22 32 -28 16 -24
-14 5 -23 3 -23 -3 0 -6 3 -10 8 -10 4 1 14 1 22 0 11 -1 9 -5 -6 -14 -11 -7
-36 -24 -55 -38 -19 -14 -123 -91 -232 -170 -109 -79 -219 -159 -243 -177
l-45 -33 34 53 c18 29 85 131 147 226 l114 173 53 -4 c30 -2 51 -2 48 2 -4 3
-15 7 -26 7 -10 1 -29 2 -41 3 -20 1 -17 7 27 46 55 48 62 51 100 33z m-202
-132 c-35 -60 -257 -385 -261 -381 -2 2 2 44 9 92 7 48 12 90 12 93 -1 5 238
209 245 210 2 0 -1 -6 -5 -14z"/>
<path d="M630 478 c0 -5 30 -7 68 -7 69 2 62 6 -20 11 -27 2 -48 0 -48 -4z"/>
</g>
</svg>
